<svg id="_x3C_Group_x3E__18_" xmlns="http://www.w3.org/2000/svg" width="56.059" height="63.782" viewBox="0 0 56.059 63.782">
  <g id="Group_33" data-name="Group 33" transform="translate(0)">
    <path id="Path_26" data-name="Path 26" d="M55.289,37.5h1.869V33.76H49.683V28.154a1.869,1.869,0,0,0-3.737,0V33.76H32.51a11.162,11.162,0,0,0,6.255,16.232A11.21,11.21,0,0,0,57.158,60.918V48.709H55.289a5.606,5.606,0,1,1,0-11.212ZM85.543,33.76h-9.7v1.869a5.606,5.606,0,1,1-11.212,0V33.76H60.9v7.474H55.289a1.869,1.869,0,0,0,0,3.737H60.9V60.918A11.21,11.21,0,0,0,79.288,49.992,11.161,11.161,0,0,0,85.543,33.76ZM79.288,13.79A11.21,11.21,0,0,0,60.9,2.864v12.21h1.869a5.606,5.606,0,1,1,0,11.212H60.9v3.737H68.37v5.606a1.869,1.869,0,1,0,3.737,0V30.022H85.543A11.162,11.162,0,0,0,79.288,13.79Zm-16.525,5.02H57.158V2.864A11.21,11.21,0,0,0,38.764,13.79,11.161,11.161,0,0,0,32.51,30.022h9.7V28.154a5.606,5.606,0,0,1,11.212,0v1.869h3.737V22.548h5.606a1.869,1.869,0,1,0,0-3.737Z" transform="translate(-30.997)" fill="#fff"/>
  </g>
</svg>
