<svg id="_006-service" data-name="006-service" xmlns="http://www.w3.org/2000/svg" width="63.782" height="63.782" viewBox="0 0 63.782 63.782">
  <g id="Group_35" data-name="Group 35" transform="translate(43.209 0)">
    <g id="Group_34" data-name="Group 34">
      <path id="Path_32" data-name="Path 32" d="M366.878,3.19,364.235.547a1.87,1.87,0,0,0-2.094-.381L347.948,6.432a1.869,1.869,0,0,0-.548,3.023l10.57,10.57a1.869,1.869,0,0,0,3.023-.548l6.266-14.193A1.869,1.869,0,0,0,366.878,3.19Z" transform="translate(-346.852 0)" fill="#fff"/>
    </g>
  </g>
  <g id="Group_37" data-name="Group 37" transform="translate(0 41.141)">
    <g id="Group_36" data-name="Group 36">
      <path id="Path_33" data-name="Path 33" d="M12.071,330.25,1.639,340.682a5.612,5.612,0,0,0,0,7.928l2.642,2.642a5.612,5.612,0,0,0,7.928,0L22.641,340.82Zm-1.165,14.4a1.869,1.869,0,1,1-2.643-2.642l5.147-5.147a1.869,1.869,0,0,1,2.642,2.642Z" transform="translate(0 -330.25)" fill="#fff"/>
    </g>
  </g>
  <g id="Group_39" data-name="Group 39" transform="translate(13.621 32.12)">
    <g id="Group_38" data-name="Group 38">
      <path id="Path_34" data-name="Path 34" d="M126.29,269.5l-10.57-10.57a3.737,3.737,0,1,0-5.285,5.285L121,274.788a3.737,3.737,0,0,0,5.285-5.285Z" transform="translate(-109.342 -257.84)" fill="#fff"/>
    </g>
  </g>
  <g id="Group_41" data-name="Group 41" transform="translate(22.641 14.741)">
    <g id="Group_40" data-name="Group 40">
      <path id="Path_35" data-name="Path 35" d="M208.15,123.615l-5.285-5.285-14.508,14.508a3.737,3.737,0,0,0-5.285,0l-1.321,1.321,10.57,10.57,1.321-1.321a3.737,3.737,0,0,0,0-5.285Z" transform="translate(-181.75 -118.33)" fill="#fff"/>
    </g>
  </g>
  <g id="Group_43" data-name="Group 43" transform="translate(35.856 33.21)">
    <g id="Group_42" data-name="Group 42">
      <path id="Path_36" data-name="Path 36" d="M312.474,278.02c-3.034-3.034-6.681-3.686-10.867-2.938l-8.5-8.494-2.029,2.029a7.461,7.461,0,0,1-1.938,7.223l-1.319,1.319L293.673,283c-.59,3.3-.534,6.1,1.515,9.131a11.218,11.218,0,0,0,10.837,4.9,1.906,1.906,0,0,0,1.087-3.236l-2.57-2.565v-5.284h5.29l2.556,2.556a1.906,1.906,0,0,0,3.236-1.1A11.172,11.172,0,0,0,312.474,278.02Z" transform="translate(-287.827 -266.588)" fill="#fff"/>
    </g>
  </g>
  <g id="Group_45" data-name="Group 45" transform="translate(0.002 0)">
    <g id="Group_44" data-name="Group 44" transform="translate(0 0)">
      <path id="Path_37" data-name="Path 37" d="M22.065,14.115c.742-4.142.141-7.785-2.938-10.866A11.079,11.079,0,0,0,11.235,0a11.389,11.389,0,0,0-1.5.1,1.906,1.906,0,0,0-1.1,3.237L11.225,5.89v5.321H5.914l-2.561-2.6A1.906,1.906,0,0,0,.117,9.7,11.205,11.205,0,0,0,5.008,20.534c3.046,2.052,5.861,2.1,9.135,1.513l5.87,5.88,1.319-1.319a7.461,7.461,0,0,1,7.222-1.938l2.028-2.028Z" transform="translate(-0.013 0)" fill="#fff"/>
    </g>
  </g>
</svg>
