<svg id="_005-sale" data-name="005-sale" xmlns="http://www.w3.org/2000/svg" width="63.873" height="63.782" viewBox="0 0 63.873 63.782">
  <path id="Path_29" data-name="Path 29" d="M167.941,303.258l-.038-.065a10.646,10.646,0,0,0-14.244-3.994l-7.934,4.119c.033.343.064.72.064.9a8.4,8.4,0,0,1-4.131,7.156,7.21,7.21,0,0,1-3.627.981A8.045,8.045,0,0,1,134,311.224l-.068-.041-6.813-4.329a1.869,1.869,0,1,1,2-3.155l6.778,4.306a3.711,3.711,0,0,0,3.884.129,4.673,4.673,0,0,0,2.118-2.833h0a4.247,4.247,0,0,0-2.226-4.6l-7.712-4.452a4.517,4.517,0,0,0-2.664-.868H119.023v17.657h1.193l14.8,8.563a5.634,5.634,0,0,0,2.816.805,4.6,4.6,0,0,0,2.469-.712l27.328-17.176A.935.935,0,0,0,167.941,303.258Z" transform="translate(-104.194 -258.623)" fill="#fff"/>
  <path id="Path_30" data-name="Path 30" d="M9.222,249.207H1.869A1.869,1.869,0,0,0,0,251.076V277.1a1.869,1.869,0,0,0,1.869,1.869H9.222a1.869,1.869,0,0,0,1.869-1.869V251.076A1.869,1.869,0,0,0,9.222,249.207Z" transform="translate(0 -218.203)" fill="#fff"/>
  <path id="Path_31" data-name="Path 31" d="M216.008,21.189a4.4,4.4,0,0,1,.595.63,4.209,4.209,0,0,1-.156,1.273,5.289,5.289,0,0,0,.222,3.767,4.23,4.23,0,0,0,3.049,1.914,4.418,4.418,0,0,1,.83.249,4.2,4.2,0,0,1,.5,1.18,5.289,5.289,0,0,0,2.076,3.151,4.231,4.231,0,0,0,3.6.133,4.46,4.46,0,0,1,.843-.2,4.211,4.211,0,0,1,1.024.771,5.29,5.29,0,0,0,3.374,1.691h.09a4.283,4.283,0,0,0,3.092-1.685,4.409,4.409,0,0,1,.63-.595,4.211,4.211,0,0,1,1.273.156,5.29,5.29,0,0,0,3.767-.222,4.23,4.23,0,0,0,1.914-3.049,4.418,4.418,0,0,1,.249-.83,4.209,4.209,0,0,1,1.18-.5,5.29,5.29,0,0,0,3.151-2.076,4.23,4.23,0,0,0,.133-3.6,4.418,4.418,0,0,1-.2-.843,4.212,4.212,0,0,1,.771-1.025,5.289,5.289,0,0,0,1.691-3.374,4.23,4.23,0,0,0-1.684-3.182,4.408,4.408,0,0,1-.595-.63,4.206,4.206,0,0,1,.156-1.273,5.29,5.29,0,0,0-.222-3.767,4.231,4.231,0,0,0-3.049-1.913,4.408,4.408,0,0,1-.83-.249,4.2,4.2,0,0,1-.5-1.18A5.29,5.29,0,0,0,240.9,2.761a4.23,4.23,0,0,0-3.6-.133,4.2,4.2,0,0,1-.843.2,4.215,4.215,0,0,1-1.025-.771A5.289,5.289,0,0,0,232.066.366h0a4.232,4.232,0,0,0-3.182,1.684,4.4,4.4,0,0,1-.63.595,4.217,4.217,0,0,1-1.273-.156,5.29,5.29,0,0,0-3.767.222A4.23,4.23,0,0,0,221.3,5.76a4.415,4.415,0,0,1-.249.83,4.205,4.205,0,0,1-1.18.5,5.29,5.29,0,0,0-3.151,2.076,4.23,4.23,0,0,0-.133,3.6,4.437,4.437,0,0,1,.2.843,4.213,4.213,0,0,1-.771,1.024,5.29,5.29,0,0,0-1.691,3.374,4.23,4.23,0,0,0,1.684,3.182Zm21.817-.763a1.869,1.869,0,1,1-2.553.684A1.869,1.869,0,0,1,237.826,20.426Zm-4.563-8.267a1.869,1.869,0,0,1,3.237,1.869l-5.731,9.927a1.869,1.869,0,0,1-3.237-1.869Zm-7.367.291A1.869,1.869,0,1,1,226.58,15,1.869,1.869,0,0,1,225.9,12.45Z" transform="translate(-187.62 -0.365)" fill="#fff"/>
</svg>
