<svg id="_001-premium-badge" data-name="001-premium-badge" xmlns="http://www.w3.org/2000/svg" width="54.499" height="63.782" viewBox="0 0 54.499 63.782">
  <g id="Layer_5_21_" transform="translate(0)">
    <g id="Group_32" data-name="Group 32">
      <path id="Path_22" data-name="Path 22" d="M81.18,54.194,72.831,39.845c1.445-.441,2.984-.83,3.623-1.934,1.066-1.84-.831-4.858-.333-6.83.513-2.03,3.542-3.786,3.542-5.849,0-2.01-3.132-4.358-3.645-6.376-.5-1.972,1.39-4.993.321-6.831s-4.63-1.687-6.1-3.1c-1.508-1.452-1.5-5-3.323-5.976s-4.8,1-6.824.53C58.09,3.019,56.3,0,54.2,0,52.079,0,48.7,3.425,48.168,3.548c-2.027.471-5-1.5-6.825-.517s-1.806,4.528-3.312,5.982c-1.464,1.413-5.025,1.269-6.091,3.109s.831,4.857.333,6.83-3.634,3.982-3.634,6.27c0,2.063,3.037,3.814,3.553,5.842.5,1.972-1.39,4.993-.32,6.831.582,1,1.9,1.411,3.222,1.806.154.046.445.218.248.506L27.177,54.3a1.164,1.164,0,0,0,1.042,1.9l5.633.235a4.485,4.485,0,0,1,3.209,1.859l3.006,4.77a1.164,1.164,0,0,0,2.167-.041S50.645,48.5,50.649,48.5c.169-.2.338-.157.42-.088a5.822,5.822,0,0,0,3.274,1.565,5.037,5.037,0,0,0,2.984-1.556c.078-.067.269-.2.408.08l8.4,14.446a1.163,1.163,0,0,0,2.166.037l3-4.776a4.485,4.485,0,0,1,3.206-1.865l5.633-.245A1.164,1.164,0,0,0,81.18,54.194ZM63.514,41.132a18.67,18.67,0,1,1-.374-32.55l.139.077.2.11a18.7,18.7,0,0,1,.038,32.362Z" transform="translate(-26.93)" fill="#fff"/>
      <path id="Path_23" data-name="Path 23" d="M117,55.664l-.078-.044a15.74,15.74,0,0,0-16.251,26.955c.179.113.36.225.545.332A15.743,15.743,0,1,0,117,55.664Zm1.879,12.279-2.63,2.564a4.418,4.418,0,0,0-1.131,3.482l.621,3.62c.192,1.121-.474,1.605-1.481,1.076l-3.251-1.709a4.42,4.42,0,0,0-3.662,0l-3.251,1.709c-1.007.529-1.674.045-1.481-1.076l.621-3.62a4.419,4.419,0,0,0-1.131-3.482l-2.63-2.564c-.815-.794-.56-1.577.566-1.741l3.634-.528a4.42,4.42,0,0,0,2.962-2.152l1.625-3.293c.5-1.02,1.327-1.02,1.831,0l1.626,3.293a4.42,4.42,0,0,0,2.962,2.152l3.634.528C119.44,66.366,119.694,67.15,118.88,67.944Z" transform="translate(-81.84 -44.27)" fill="#fff"/>
    </g>
  </g>
</svg>
