<svg id="_004-on-time" data-name="004-on-time" xmlns="http://www.w3.org/2000/svg" width="69.531" height="56.548" viewBox="0 0 69.531 56.548">
  <path id="Path_27" data-name="Path 27" d="M192.836,127.6a17.437,17.437,0,1,0,17.437,17.437A17.457,17.457,0,0,0,192.836,127.6Zm8.223,19.475H190.8v-14.3h4.074V143h6.186Z" transform="translate(-151.578 -116.761)" fill="#fff"/>
  <path id="Path_28" data-name="Path 28" d="M41.335,47.8a28.146,28.146,0,0,0-16.611,5.337H9.306a4.4,4.4,0,1,0,0,8.8h7.459a28.1,28.1,0,0,0-3.113,8H4.4a4.4,4.4,0,0,0,0,8.8h8.708a28.1,28.1,0,0,0,1.959,8H11.925a4.4,4.4,0,0,0,0,8.8H20.76A28.274,28.274,0,1,0,41.335,47.8Zm-.078,49.786A21.512,21.512,0,1,1,62.769,76.075,21.536,21.536,0,0,1,41.257,97.587Z" transform="translate(0 -47.801)" fill="#fff"/>
</svg>
