<svg xmlns="http://www.w3.org/2000/svg" width="87" height="87" viewBox="0 0 87 87">
  <path id="_001-guarantee" data-name="001-guarantee" d="M82.287,36.6c-1.02-.838-2.561-2.105-2.737-2.763-.2-.739.5-2.6,1-3.953.98-2.628,2.091-5.608.624-8.144-1.485-2.566-4.648-3.092-7.439-3.557-1.33-.222-3.339-.556-3.852-1.07s-.848-2.523-1.07-3.852c-.465-2.791-.992-5.954-3.558-7.439-2.534-1.467-5.515-.356-8.144.624-1.356.506-3.215,1.2-3.953,1C52.5,7.273,51.235,5.732,50.4,4.713,48.58,2.5,46.521,0,43.5,0s-5.08,2.5-6.9,4.713C35.765,5.733,34.5,7.274,33.84,7.45c-.739.2-2.6-.5-3.953-1-2.628-.98-5.608-2.091-8.144-.624-2.566,1.485-3.092,4.648-3.557,7.439-.222,1.33-.556,3.339-1.07,3.852s-2.523.848-3.852,1.07c-2.791.465-5.954.992-7.439,3.558-1.467,2.535-.356,5.514.624,8.144.506,1.356,1.2,3.215,1,3.953-.176.658-1.717,1.925-2.737,2.764C2.5,38.42,0,40.479,0,43.5s2.5,5.08,4.713,6.9c1.02.838,2.561,2.105,2.737,2.763.2.739-.5,2.6-1,3.953-.98,2.628-2.091,5.608-.624,8.144,1.485,2.566,4.648,3.092,7.439,3.557,1.33.222,3.339.556,3.852,1.07s.848,2.523,1.07,3.852c.465,2.791.992,5.954,3.558,7.439,2.534,1.467,5.515.356,8.144-.624,1.356-.506,3.215-1.2,3.953-1,.658.176,1.925,1.717,2.764,2.737C38.42,84.5,40.479,87,43.5,87s5.08-2.5,6.9-4.713c.838-1.02,2.105-2.561,2.763-2.737.739-.2,2.6.5,3.953,1,2.628.979,5.608,2.091,8.144.624,2.566-1.485,3.092-4.648,3.557-7.439.222-1.33.556-3.339,1.07-3.852s2.523-.848,3.852-1.07c2.791-.465,5.954-.992,7.439-3.558,1.467-2.535.356-5.514-.624-8.144-.506-1.356-1.2-3.215-1-3.953.176-.658,1.717-1.925,2.737-2.764C84.5,48.58,87,46.521,87,43.5S84.5,38.42,82.287,36.6Zm-20.048.874L47.181,57.554a6.687,6.687,0,0,1-4.879,2.66c-.157.011-.317.017-.475.017a6.646,6.646,0,0,1-4.732-1.96L27.056,48.233a6.692,6.692,0,0,1,9.465-9.465L41.1,43.35l10.428-13.9a6.692,6.692,0,0,1,10.708,8.031Zm0,0" fill="#00802f"/>
</svg>
