<svg id="_004-inspection" data-name="004-inspection" xmlns="http://www.w3.org/2000/svg" width="87" height="87" viewBox="0 0 87 87">
  <path id="Path_204" data-name="Path 204" d="M155.138,0a33.135,33.135,0,1,0,33.135,33.135A33.173,33.173,0,0,0,155.138,0Zm0,56.074a22.939,22.939,0,1,1,22.939-22.939A22.964,22.964,0,0,1,155.138,56.074Zm0,0" transform="translate(-101.273)" fill="#00802f"/>
  <path id="Path_205" data-name="Path 205" d="M229.846,90a17.842,17.842,0,1,0,17.842,17.842A17.863,17.863,0,0,0,229.846,90ZM227.3,119.092l-9.449-9.449,3.6-3.6,5.844,5.844,10.942-10.942,3.6,3.6Zm0,0" transform="translate(-175.98 -74.707)" fill="#00802f"/>
  <path id="Path_206" data-name="Path 206" d="M10.813,419.69,0,408.877l8.085-8.085L18.9,411.605Zm0,0" transform="translate(0 -332.69)" fill="#00802f"/>
  <path id="Path_207" data-name="Path 207" d="M89.906,329.773a38.541,38.541,0,0,1-10.813-10.813l-10.3,10.3,10.813,10.813Zm0,0" transform="translate(-57.104 -264.763)" fill="#00802f"/>
</svg>
