<svg id="_001-call" data-name="001-call" xmlns="http://www.w3.org/2000/svg" width="87.445" height="87.496" viewBox="0 0 87.445 87.496">
  <g id="Group_842" data-name="Group 842" transform="translate(0 37.309)">
    <g id="Group_841" data-name="Group 841">
      <path id="Path_189" data-name="Path 189" d="M48.4,253.819l-6.879-6.89a6.192,6.192,0,0,0-4.945-1.8,6.1,6.1,0,0,0-4.484,2.606q-.053.077-.1.157L30.928,249.7c-1.293-.046-4.023-.666-7.664-4.344-3.606-3.643-4.23-6.414-4.288-7.718l1.8-1.048q.083-.049.163-.1a6.1,6.1,0,0,0,2.619-4.477,6.191,6.191,0,0,0-1.791-4.951l-6.879-6.89a6.136,6.136,0,0,0-7.154-1.176A13.875,13.875,0,0,0,.383,229.54a25.612,25.612,0,0,0,2.023,13.568,42.927,42.927,0,0,0,9.342,13.717,43.015,43.015,0,0,0,13.694,9.39,27.79,27.79,0,0,0,10.564,2.294,19.55,19.55,0,0,0,3-.225,13.855,13.855,0,0,0,10.556-7.307A6.136,6.136,0,0,0,48.4,253.819Z" transform="translate(-0.149 -218.322)" fill="#00802f"/>
    </g>
  </g>
  <g id="Group_844" data-name="Group 844" transform="translate(29.428)">
    <g id="Group_843" data-name="Group 843">
      <path id="Path_190" data-name="Path 190" d="M221.884,8.5a29.018,29.018,0,0,0-49.366,17.391,29.168,29.168,0,0,0,3.63,17.492l-2.914,10.587a2.587,2.587,0,0,0,3.181,3.181L187,54.235A29.02,29.02,0,0,0,221.884,8.5ZM191.563,30.607a2.587,2.587,0,1,1,2.587-2.587A2.632,2.632,0,0,1,191.563,30.607Zm9.8,0a2.587,2.587,0,1,1,2.587-2.587A2.632,2.632,0,0,1,201.367,30.607Zm9.8,0a2.587,2.587,0,1,1,2.587-2.587A2.632,2.632,0,0,1,211.17,30.607Z" transform="translate(-172.352 0)" fill="#00802f"/>
    </g>
  </g>
</svg>
