<svg id="_006-3d-modeling" data-name="006-3d-modeling" xmlns="http://www.w3.org/2000/svg" width="75.344" height="87" viewBox="0 0 75.344 87">
  <path id="Path_219" data-name="Path 219" d="M187.7,5.9l11.33,6.542,2.556-4.426L187.7,0,173.818,8.017l2.556,4.426Z" transform="translate(-150.032 0)" fill="#00802f"/>
  <path id="Path_220" data-name="Path 220" d="M39.317,91.572l11.33-6.542L48.092,80.6,34.206,88.621v16.034h5.111Z" transform="translate(-34.206 -66.871)" fill="#00802f"/>
  <path id="Path_221" data-name="Path 221" d="M39.317,288.87H34.206V304.9l13.886,8.017,2.556-4.426-11.33-6.542Z" transform="translate(-34.206 -239.654)" fill="#00802f"/>
  <path id="Path_222" data-name="Path 222" d="M187.7,444.146l-11.33-6.542-2.556,4.426,13.886,8.017,13.886-8.017-2.556-4.426Z" transform="translate(-150.032 -363.048)" fill="#00802f"/>
  <path id="Path_223" data-name="Path 223" d="M391.262,301.953l-11.33,6.542,2.556,4.426,13.886-8.017V288.87h-5.111Z" transform="translate(-321.029 -239.654)" fill="#00802f"/>
  <path id="Path_224" data-name="Path 224" d="M382.488,80.6l-2.556,4.426,11.33,6.542v13.083h5.111V88.621Z" transform="translate(-321.029 -66.871)" fill="#00802f"/>
  <path id="Path_225" data-name="Path 225" d="M295.208,208.38V179.641L270.32,194.01v28.739Z" transform="translate(-230.092 -149.035)" fill="#00802f"/>
  <path id="Path_226" data-name="Path 226" d="M109.239,83.689l24.888,14.369,24.888-14.369L134.127,69.32Z" transform="translate(-96.455 -57.51)" fill="#00802f"/>
  <path id="Path_227" data-name="Path 227" d="M94.24,208.38l24.888,14.369V194.01L94.24,179.641Z" transform="translate(-84.012 -149.035)" fill="#00802f"/>
</svg>
