<svg id="_003-money" data-name="003-money" xmlns="http://www.w3.org/2000/svg" width="87" height="87" viewBox="0 0 87 87">
  <path id="Path_201" data-name="Path 201" d="M131.488,51.146A25.573,25.573,0,1,0,106,25.658,25.519,25.519,0,0,0,131.488,51.146Zm-2.549-37.763V10.467a2.549,2.549,0,0,1,5.1,0v2.944a7.617,7.617,0,0,1,4.072,3.323,2.548,2.548,0,0,1-4.411,2.554,2.549,2.549,0,1,0-2.21,3.821,7.628,7.628,0,0,1,2.549,14.824v2.814a2.549,2.549,0,0,1-5.1,0V37.9a7.62,7.62,0,0,1-4.072-3.323,2.548,2.548,0,0,1,4.411-2.554,2.549,2.549,0,1,0,2.21-3.821,7.628,7.628,0,0,1-2.549-14.824Zm0,0" transform="translate(-87.988)" fill="#00802f"/>
  <path id="Path_202" data-name="Path 202" d="M0,398.646A2.548,2.548,0,0,0,2.549,401.2h33.3v5.268H28.207a2.549,2.549,0,0,0,0,5.1H58.793a2.549,2.549,0,0,0,0-5.1H51.147V401.2h33.3A2.548,2.548,0,0,0,87,398.646V391H0Zm0,0" transform="translate(0 -324.561)" fill="#00802f"/>
  <path id="Path_203" data-name="Path 203" d="M84.451,91H72.3a30.586,30.586,0,1,1-57.6,0H2.549A2.548,2.548,0,0,0,0,93.549v43.33H87V93.549A2.548,2.548,0,0,0,84.451,91Zm0,0" transform="translate(0 -75.537)" fill="#00802f"/>
</svg>
