<svg id="_002-checklist" data-name="002-checklist" xmlns="http://www.w3.org/2000/svg" width="66.61" height="87" viewBox="0 0 66.61 87">
  <path id="Path_191" data-name="Path 191" d="M176.551,215.618a16.263,16.263,0,1,0,16.263,16.263A16.282,16.282,0,0,0,176.551,215.618Zm-2.627,25.417-8.8-8.706L168.7,228.7l5.356,5.3,10.41-9.532,3.442,3.76Z" transform="translate(-143.246 -178.979)" fill="#00802f"/>
  <path id="Path_192" data-name="Path 192" d="M183.986,7.163H173.491l-.575-1.755a7.858,7.858,0,0,0-14.932,0l-.575,1.755H146.914v8.484h37.072Z" transform="translate(-132.145)" fill="#00802f"/>
  <path id="Path_193" data-name="Path 193" d="M116.937,66.495v9.446H69.669V66.495H60v75.7h66.61v-75.7ZM93.3,129.459A21.361,21.361,0,1,1,114.664,108.1,21.385,21.385,0,0,1,93.3,129.459Z" transform="translate(-59.998 -55.196)" fill="#00802f"/>
</svg>
