<svg id="_004-test" data-name="004-test" xmlns="http://www.w3.org/2000/svg" width="70.619" height="87" viewBox="0 0 70.619 87">
  <path id="Path_208" data-name="Path 208" d="M142.468,383.467h5.823v5.823h-5.823Z" transform="translate(-126.45 -318.308)" fill="#00802f"/>
  <path id="Path_209" data-name="Path 209" d="M339.543,29.134h16.071L335.266,8.787V24.858A4.281,4.281,0,0,0,339.543,29.134Z" transform="translate(-286.487 -7.294)" fill="#00802f"/>
  <path id="Path_210" data-name="Path 210" d="M142.468,254.933h5.823v5.823h-5.823Z" transform="translate(-126.45 -211.614)" fill="#00802f"/>
  <path id="Path_211" data-name="Path 211" d="M101.255,26.938a9.385,9.385,0,0,1-9.374-9.374V0H57.574A9.385,9.385,0,0,0,48.2,9.374V77.626A9.385,9.385,0,0,0,57.574,87h51.872a9.384,9.384,0,0,0,9.374-9.374V26.938ZM94.43,38.221a2.549,2.549,0,0,1,0,5.1H83.51a2.549,2.549,0,0,1,0-5.1ZM61.669,13.65H75.32a2.549,2.549,0,1,1,0,5.1H61.669a2.549,2.549,0,1,1,0-5.1Zm0,10.92H83.51a2.549,2.549,0,1,1,0,5.1H61.669a2.549,2.549,0,1,1,0-5.1Zm13.469,48.96A2.549,2.549,0,0,1,72.59,76.08H61.669a2.549,2.549,0,0,1-2.549-2.549V62.61a2.549,2.549,0,0,1,2.549-2.549H72.59a2.549,2.549,0,0,1,2.549,2.549Zm0-21.841a2.549,2.549,0,0,1-2.549,2.549H61.669a2.549,2.549,0,0,1-2.549-2.549V40.77a2.549,2.549,0,0,1,2.549-2.549H72.59a2.549,2.549,0,0,1,2.549,2.549ZM105.351,76.08H83.51a2.549,2.549,0,0,1,0-5.1h21.841a2.549,2.549,0,0,1,0,5.1ZM80.961,62.611a2.549,2.549,0,0,1,2.549-2.549H94.43a2.549,2.549,0,0,1,0,5.1H83.51A2.549,2.549,0,0,1,80.961,62.611Zm24.389-8.372H83.51a2.549,2.549,0,1,1,0-5.1h21.841a2.549,2.549,0,1,1,0,5.1Z" transform="translate(-48.2 0)" fill="#00802f"/>
</svg>
