<svg id="_005-molded" data-name="005-molded" xmlns="http://www.w3.org/2000/svg" width="112.757" height="87" viewBox="0 0 112.757 87">
  <g id="Group_846" data-name="Group 846" transform="translate(49.391 54.512)">
    <g id="Group_845" data-name="Group 845">
      <path id="Path_212" data-name="Path 212" d="M237.518,306.733a2.487,2.487,0,0,0-3.518,0l-2.743,2.741-2.74-2.741A2.487,2.487,0,0,0,225,310.251l6.26,6.257,6.257-6.257A2.491,2.491,0,0,0,237.518,306.733Z" transform="translate(-224.273 -306.005)" fill="#00802f"/>
    </g>
  </g>
  <g id="Group_848" data-name="Group 848" transform="translate(17.794 54.512)">
    <g id="Group_847" data-name="Group 847">
      <path id="Path_213" data-name="Path 213" d="M86.742,306a5.945,5.945,0,1,0,5.945,5.945A5.952,5.952,0,0,0,86.742,306Z" transform="translate(-80.797 -306.004)" fill="#00802f"/>
    </g>
  </g>
  <g id="Group_850" data-name="Group 850" transform="translate(16.752 20.597)">
    <g id="Group_849" data-name="Group 849">
      <path id="Path_214" data-name="Path 214" d="M89.313,152.732a2.488,2.488,0,0,0-3.518,0l-2.743,2.742-2.74-2.744A2.487,2.487,0,0,0,76.8,156.25l6.26,6.257,6.257-6.257A2.491,2.491,0,0,0,89.313,152.732Z" transform="translate(-76.068 -152.004)" fill="#00802f"/>
    </g>
  </g>
  <g id="Group_852" data-name="Group 852" transform="translate(50.433 20.597)">
    <g id="Group_851" data-name="Group 851">
      <path id="Path_215" data-name="Path 215" d="M234.949,152a5.945,5.945,0,1,0,5.945,5.945A5.952,5.952,0,0,0,234.949,152Z" transform="translate(-229.004 -152.004)" fill="#00802f"/>
    </g>
  </g>
  <g id="Group_854" data-name="Group 854" transform="translate(83.073 54.512)">
    <g id="Group_853" data-name="Group 853">
      <path id="Path_216" data-name="Path 216" d="M383.157,306a5.945,5.945,0,1,0,5.945,5.945A5.952,5.952,0,0,0,383.157,306Z" transform="translate(-377.212 -306.004)" fill="#00802f"/>
    </g>
  </g>
  <g id="Group_856" data-name="Group 856" transform="translate(82.031 20.597)">
    <g id="Group_855" data-name="Group 855">
      <path id="Path_217" data-name="Path 217" d="M385.728,152.733a2.487,2.487,0,0,0-3.518,0l-2.742,2.742-2.741-2.744a2.487,2.487,0,0,0-3.516,3.519l6.259,6.257,6.257-6.257A2.49,2.49,0,0,0,385.728,152.733Z" transform="translate(-372.483 -152.004)" fill="#00802f"/>
    </g>
  </g>
  <g id="Group_858" data-name="Group 858" transform="translate(0 0)">
    <g id="Group_857" data-name="Group 857">
      <path id="Path_218" data-name="Path 218" d="M103.563,58.478H9.193A9.2,9.2,0,0,0,0,67.671v68.613a9.2,9.2,0,0,0,9.193,9.193h94.37a9.2,9.2,0,0,0,9.193-9.193V67.671A9.2,9.2,0,0,0,103.563,58.478Zm-47.185,13.9A12.644,12.644,0,1,1,43.734,85.02,12.658,12.658,0,0,1,56.378,72.376Zm-32.639,59.2a12.644,12.644,0,1,1,12.644-12.644A12.658,12.658,0,0,1,23.739,131.579ZM34.734,88.058,23.741,99.051l-11-10.993a9.189,9.189,0,0,1,10.995-14.51,9.189,9.189,0,0,1,11,14.509Zm32.639,33.915L56.38,132.967l-11-10.993a9.189,9.189,0,0,1,10.995-14.51,9.189,9.189,0,0,1,11,14.509Zm21.645,9.606a12.644,12.644,0,1,1,12.644-12.644A12.658,12.658,0,0,1,89.018,131.579Zm11-43.521L89.02,99.051l-11-10.993a9.189,9.189,0,0,1,10.995-14.51,9.189,9.189,0,0,1,10.995,14.509Z" transform="translate(0 -58.478)" fill="#00802f"/>
    </g>
  </g>
</svg>
