<svg id="_006-truck-1" data-name="006-truck-1" xmlns="http://www.w3.org/2000/svg" width="121.345" height="87" viewBox="0 0 121.345 87">
  <path id="Path_228" data-name="Path 228" d="M114.755,129.141q-.279-.362-.537-.7a69.215,69.215,0,0,1-5.394-8.79,43.19,43.19,0,0,0-4.451-7.129c-3.442-4-6.68-5.943-9.9-5.943h-15.9c-.015,0-1.534.019-3.362.019H72.618a4.059,4.059,0,0,0-3.93,3.06l-.021.084v35.108l0,.072a1.341,1.341,0,0,1-.355.957,3.278,3.278,0,0,1-2.428.73H3.953A3.845,3.845,0,0,0,0,150.326v12.783a3.846,3.846,0,0,0,3.953,3.719h13.6a15.953,15.953,0,0,0,31.783,0H72.1a15.953,15.953,0,0,0,31.783,0h10.346a7.121,7.121,0,0,0,7.113-7.113v-12.2C121.345,137.688,117.38,132.544,114.755,129.141ZM93.944,165.427a5.949,5.949,0,1,1-5.95-5.948A5.955,5.955,0,0,1,93.944,165.427Zm13.68-30.966c-.124.205-.479.294-1.018.259H79.27v-22.3H91.088c3.18,0,5.433,1.384,7.778,4.778,1.559,2.257,5.687,9.363,5.9,9.726.147.283.3.571.449.861C106.4,130.062,108.2,133.5,107.624,134.461ZM33.446,159.479a5.948,5.948,0,1,1-5.948,5.948A5.955,5.955,0,0,1,33.446,159.479Z" transform="translate(0 -94.381)" fill="#00802f"/>
  <path id="Path_229" data-name="Path 229" d="M21.179,176.985H39.917a3.448,3.448,0,0,0,3.445-3.445V159.762a3.448,3.448,0,0,0-3.445-3.445H21.179a3.448,3.448,0,0,0-3.445,3.445V173.54A3.449,3.449,0,0,0,21.179,176.985Z" transform="translate(-12.847 -130.413)" fill="#00802f"/>
  <path id="Path_230" data-name="Path 230" d="M134.179,176.985h18.739a3.448,3.448,0,0,0,3.445-3.445V159.762a3.448,3.448,0,0,0-3.445-3.445H134.179a3.448,3.448,0,0,0-3.445,3.445V173.54A3.449,3.449,0,0,0,134.179,176.985Z" transform="translate(-94.708 -130.413)" fill="#00802f"/>
  <path id="Path_231" data-name="Path 231" d="M21.179,82.985H39.917a3.448,3.448,0,0,0,3.445-3.445V65.762a3.448,3.448,0,0,0-3.445-3.445H21.179a3.448,3.448,0,0,0-3.445,3.445V79.54A3.449,3.449,0,0,0,21.179,82.985Z" transform="translate(-12.847 -62.317)" fill="#00802f"/>
  <path id="Path_232" data-name="Path 232" d="M134.179,82.985h18.739a3.448,3.448,0,0,0,3.445-3.445V65.762a3.448,3.448,0,0,0-3.445-3.445H134.179a3.448,3.448,0,0,0-3.445,3.445V79.54A3.449,3.449,0,0,0,134.179,82.985Z" transform="translate(-94.708 -62.317)" fill="#00802f"/>
</svg>
