<svg xmlns="http://www.w3.org/2000/svg" width="46.018" height="77.144" viewBox="0 0 46.018 77.144">
  <g id="_002-grill" data-name="002-grill" transform="translate(0)">
    <g id="Group_969" data-name="Group 969" transform="translate(0 9.601)">
      <g id="Group_968" data-name="Group 968">
        <path id="Path_241" data-name="Path 241" d="M133.721,63.72H118.877q-.187,0-.374,0t-.368.013h0A15.606,15.606,0,0,0,103.29,79.307v2.227h46.018V79.307A15.6,15.6,0,0,0,133.721,63.72Z" transform="translate(-103.29 -63.72)" fill="#1a1311"/>
      </g>
    </g>
    <g id="Group_971" data-name="Group 971" transform="translate(0 31.867)">
      <g id="Group_970" data-name="Group 970">
        <path id="Path_242" data-name="Path 242" d="M103.29,211.5v8.165h0a6.688,6.688,0,0,0,6.68,6.68h4.719l-3.186,16.33h-.048a7.062,7.062,0,1,0,4.3,1.468l.576-2.953h19.938l2.69,13.787a2.227,2.227,0,0,0,4.371-.853l-3.045-15.6,0-.009-2.374-12.165h4.719a6.688,6.688,0,0,0,6.68-6.68V211.5H103.29Zm20.04,2.97h5.938a2.227,2.227,0,1,1,0,4.453H123.33a2.227,2.227,0,1,1,0-4.453ZM117.2,236.739l2.028-10.391h14.145l2.027,10.391Z" transform="translate(-103.29 -211.503)" fill="#1a1311"/>
      </g>
    </g>
    <g id="Group_973" data-name="Group 973" transform="translate(14.844)">
      <g id="Group_972" data-name="Group 972">
        <path id="Path_243" data-name="Path 243" d="M208.566,0h-3.043a3.715,3.715,0,0,0-3.711,3.711V5.163c.246-.009.494-.015.742-.015h9.723V3.711A3.715,3.715,0,0,0,208.566,0Z" transform="translate(-201.812)" fill="#1a1311"/>
      </g>
    </g>
  </g>
</svg>
