<svg id="XMLID_1694_" xmlns="http://www.w3.org/2000/svg" width="56.394" height="69.743" viewBox="0 0 56.394 69.743">
  <g id="XMLID_814_" transform="translate(0 0)">
    <g id="XMLID_818_">
      <path id="XMLID_899_" d="M121.165,194h-17.5a1.362,1.362,0,0,0,0,2.724h12.123v5.857a5.591,5.591,0,0,1-5.585,5.585H84.87a5.591,5.591,0,0,1-5.585-5.585v-5.857H91.408a1.362,1.362,0,1,0,0-2.724h-17.5a1.362,1.362,0,0,0,0,2.724h2.65v5.857a8.322,8.322,0,0,0,6.713,8.154l-5.436,24.929a1.362,1.362,0,0,0,1.331,1.652h5.91a1.362,1.362,0,0,0,1.331-1.073l3.1-14.252h16.053l3.1,14.252A1.362,1.362,0,0,0,110,237.318h5.91a1.362,1.362,0,0,0,1.331-1.652L111.8,210.737a8.322,8.322,0,0,0,6.713-8.154v-5.857h2.65a1.362,1.362,0,0,0,0-2.724ZM83.982,234.594H80.86l5.168-23.7h3.11ZM90.1,219.27l1.823-8.377h11.222l1.823,8.377Zm20.99,15.324-5.157-23.7h3.11l5.168,23.7Z" transform="translate(-69.341 -167.576)" fill="#1a1311"/>
      <path id="XMLID_908_" d="M104.029,108.886a1.362,1.362,0,0,0-1.362,1.362,1.635,1.635,0,0,1-3.269,0,1.362,1.362,0,0,0-1.362-1.362H95.658a4.355,4.355,0,0,0-6.6-2.237,2.68,2.68,0,0,0-1.869-.76H83.856a2.68,2.68,0,0,0-1.869.76,4.349,4.349,0,0,0-4.9-.007,2.68,2.68,0,0,0-1.881-.77H71.869a2.681,2.681,0,0,0-1.88.77,4.35,4.35,0,0,0-4.889,0,2.68,2.68,0,0,0-1.88-.77H59.881a2.693,2.693,0,0,0-2.69,2.69v.324H50.359a1.362,1.362,0,0,0,0,2.724h6.832v.289a2.693,2.693,0,0,0,2.69,2.69h3.337a2.679,2.679,0,0,0,1.859-.75,4.347,4.347,0,0,0,4.933,0,2.679,2.679,0,0,0,1.858.75h3.337a2.679,2.679,0,0,0,1.859-.75,4.347,4.347,0,0,0,4.922.008,2.679,2.679,0,0,0,1.869.76h3.337a2.68,2.68,0,0,0,1.869-.76,4.355,4.355,0,0,0,6.6-2.237h1.233a4.359,4.359,0,0,0,8.5-1.362,1.362,1.362,0,0,0-1.362-1.362Zm-40.844,2.979H59.915V108.6h3.269Zm4.359.018a1.635,1.635,0,1,1,1.635-1.635A1.636,1.636,0,0,1,67.544,111.882Zm7.628-.018H71.9V108.6h3.269Zm4.359.018a1.635,1.635,0,1,1,1.635-1.635A1.636,1.636,0,0,1,79.531,111.882Zm7.628,0H83.89v-3.269h3.269Zm4.359,0a1.635,1.635,0,1,1,1.635-1.635A1.636,1.636,0,0,1,91.518,111.882Z" transform="translate(-48.997 -91.45)" fill="#1a1311"/>
      <path id="XMLID_914_" d="M328.679,9.187a1.362,1.362,0,1,0,2.425,1.241,6.012,6.012,0,0,0,0-5.464,3.281,3.281,0,0,1,0-2.982A1.362,1.362,0,1,0,328.679.742a6.012,6.012,0,0,0,0,5.464A3.282,3.282,0,0,1,328.679,9.187Z" transform="translate(-290.015 0)" fill="#1a1311"/>
      <path id="XMLID_915_" d="M243.062,9.187a1.362,1.362,0,1,0,2.425,1.241,6.011,6.011,0,0,0,0-5.464,3.281,3.281,0,0,1,0-2.982A1.362,1.362,0,1,0,243.062.742a6.012,6.012,0,0,0,0,5.464A3.281,3.281,0,0,1,243.062,9.187Z" transform="translate(-216.061 0)" fill="#1a1311"/>
      <path id="XMLID_916_" d="M157.444,9.187a1.362,1.362,0,1,0,2.425,1.241,6.011,6.011,0,0,0,0-5.464,3.281,3.281,0,0,1,0-2.982A1.362,1.362,0,1,0,157.444.742a6.011,6.011,0,0,0,0,5.464,3.28,3.28,0,0,1,0,2.982Z" transform="translate(-142.105 0)" fill="#1a1311"/>
      <path id="XMLID_917_" d="M248.326,196.327a1.361,1.361,0,1,0-.963.4A1.373,1.373,0,0,0,248.326,196.327Z" transform="translate(-219.166 -167.576)" fill="#1a1311"/>
    </g>
  </g>
</svg>
