<svg xmlns="http://www.w3.org/2000/svg" width="70.044" height="70.042" viewBox="0 0 70.044 70.042">
  <g id="_041---Forging" data-name="041---Forging" transform="translate(0.151 0.15)">
    <path id="Shape" d="M66.167,9.3l-20.836.516V4.649A4.649,4.649,0,0,0,40.682,0h-9.3a4.649,4.649,0,0,0-4.649,4.649v5.633l-2.414.063a3.473,3.473,0,0,0-3.4,3.487v1.395a3.473,3.473,0,0,0,3.4,3.487l2.413.063c0,5.928-.2,6.509.646,7.958H18.6a2.325,2.325,0,0,0-2.325,2.325H2.324A2.364,2.364,0,0,0,.056,31.914c1.317,7.795,7.519,8.7,16.216,8.763A2.34,2.34,0,0,0,18.6,43.008H26.09c2.36,6.75,1.718,10.685-1.279,17.436H22.084V55.794a1.162,1.162,0,0,0-2.325,0v4.649H18.6a2.325,2.325,0,0,0-2.325,2.325v4.65A2.325,2.325,0,0,0,18.6,69.742h48.82a2.325,2.325,0,0,0,2.325-2.325v-4.65a2.325,2.325,0,0,0-2.325-2.325H66.255V55.794a1.162,1.162,0,0,0-2.325,0v4.649H61.2c-2.993-6.751-3.635-10.686-1.279-17.436h7.5a2.325,2.325,0,0,0,2.325-2.325V29.059a2.325,2.325,0,0,0-2.325-2.325H44.686c.831-1.426.646-2.032.646-7.49,28,.7,19.157.517,20.93.517a3.487,3.487,0,0,0,3.48-3.488V12.786A3.487,3.487,0,0,0,66.167,9.3Zm-41.784,7.09a1.162,1.162,0,0,1-1.137-1.162V13.832a1.162,1.162,0,0,1,1.136-1.162l2.351-.062v3.843ZM2.348,31.526c-.013-.077,0-.13-.009-.142H16.272v6.964C6.166,38.242,3.232,36.755,2.348,31.526ZM67.417,67.418H18.6V62.768h48.82ZM58.66,60.443H27.353c2.641-6.2,3.393-10.665,1.195-17.436H57.466c-2.2,6.771-1.44,11.239,1.195,17.436Zm8.757-19.76H18.6V29.059h48.82ZM31.383,26.735a2.325,2.325,0,0,1-2.325-2.325V4.649a2.325,2.325,0,0,1,2.325-2.325h9.3a2.325,2.325,0,0,1,2.325,2.325V24.41a2.325,2.325,0,0,1-2.325,2.325ZM67.417,16.273a1.162,1.162,0,0,1-1.191,1.162l-1.133-.028v-2.3a1.162,1.162,0,0,0-2.325,0V17.35l-2.325-.057V15.111a1.162,1.162,0,1,0-2.325,0v2.124l-12.786-.317V12.142l20.9-.518a1.162,1.162,0,0,1,1.189,1.162Z" transform="translate(0.001 0)" fill="#1a1311" stroke="#1a1311" stroke-width="0.3"/>
    <path id="Shape-2" data-name="Shape" d="M15.162,0A1.162,1.162,0,0,0,14,1.162V13.948a1.162,1.162,0,1,0,2.325,0V1.162A1.162,1.162,0,0,0,15.162,0Z" transform="translate(2.273)" fill="#1a1311" stroke="#1a1311" stroke-width="0.3"/>
    <path id="Shape-3" data-name="Shape" d="M7.162,16.325h5.812a1.162,1.162,0,1,0,0-2.325H7.162a1.162,1.162,0,1,0,0,2.325Z" transform="translate(0.974 2.273)" fill="#1a1311" stroke="#1a1311" stroke-width="0.3"/>
    <path id="Shape-4" data-name="Shape" d="M6.341,6.341a1.162,1.162,0,0,0,0,1.644l4.649,4.65a1.162,1.162,0,0,0,1.644-1.644L7.984,6.341a1.162,1.162,0,0,0-1.644,0Z" transform="translate(0.974 0.974)" fill="#1a1311" stroke="#1a1311" stroke-width="0.3"/>
    <path id="Shape-5" data-name="Shape" d="M1.341,1.341a1.162,1.162,0,0,0,0,1.644L3.665,5.309A1.162,1.162,0,0,0,5.309,3.665L2.984,1.341a1.162,1.162,0,0,0-1.644,0Z" transform="translate(0.162 0.162)" fill="#1a1311" stroke="#1a1311" stroke-width="0.3"/>
    <path id="Shape-6" data-name="Shape" d="M1.162,16.325H3.487a1.162,1.162,0,1,0,0-2.325H1.162a1.162,1.162,0,1,0,0,2.325Z" transform="translate(0 2.273)" fill="#1a1311" stroke="#1a1311" stroke-width="0.3"/>
    <path id="Shape-7" data-name="Shape" d="M21.487,27H19.162a1.162,1.162,0,1,0,0,2.325h2.325a1.162,1.162,0,0,0,0-2.325Z" transform="translate(2.923 4.384)" fill="#1a1311" stroke="#1a1311" stroke-width="0.3"/>
    <path id="Shape-8" data-name="Shape" d="M24,28.162a1.162,1.162,0,0,0,1.162,1.162H54.222a1.162,1.162,0,1,0,0-2.325H25.162A1.162,1.162,0,0,0,24,28.162Z" transform="translate(3.897 4.384)" fill="#1a1311" stroke="#1a1311" stroke-width="0.3"/>
  </g>
</svg>
