<svg xmlns="http://www.w3.org/2000/svg" width="77.722" height="69.743" viewBox="0 0 77.722 69.743">
  <g id="_002-worker" data-name="002-worker" transform="translate(0.25 -26.204)">
    <circle id="Ellipse_18" data-name="Ellipse 18" cx="1.131" cy="1.131" r="1.131" transform="translate(6.826 78.517)" fill="#1a1311" stroke="#1a1311" stroke-width="0.5"/>
    <circle id="Ellipse_19" data-name="Ellipse 19" cx="1.131" cy="1.131" r="1.131" transform="translate(15.584 78.517)" fill="#1a1311" stroke="#1a1311" stroke-width="0.5"/>
    <circle id="Ellipse_20" data-name="Ellipse 20" cx="1.131" cy="1.131" r="1.131" transform="translate(24.342 78.517)" fill="#1a1311" stroke="#1a1311" stroke-width="0.5"/>
    <circle id="Ellipse_21" data-name="Ellipse 21" cx="1.131" cy="1.131" r="1.131" transform="translate(33.101 78.517)" fill="#1a1311" stroke="#1a1311" stroke-width="0.5"/>
    <circle id="Ellipse_22" data-name="Ellipse 22" cx="1.131" cy="1.131" r="1.131" transform="translate(41.859 78.517)" fill="#1a1311" stroke="#1a1311" stroke-width="0.5"/>
    <circle id="Ellipse_23" data-name="Ellipse 23" cx="1.131" cy="1.131" r="1.131" transform="translate(50.617 78.517)" fill="#1a1311" stroke="#1a1311" stroke-width="0.5"/>
    <circle id="Ellipse_24" data-name="Ellipse 24" cx="1.131" cy="1.131" r="1.131" transform="translate(59.376 78.517)" fill="#1a1311" stroke="#1a1311" stroke-width="0.5"/>
    <circle id="Ellipse_25" data-name="Ellipse 25" cx="1.131" cy="1.131" r="1.131" transform="translate(68.134 78.517)" fill="#1a1311" stroke="#1a1311" stroke-width="0.5"/>
    <path id="Path_152" data-name="Path 152" d="M77.222,79.648a6.169,6.169,0,0,0-6.162-6.162H52.1V72.42a10.863,10.863,0,0,0-9.68-10.766V60.013a11.546,11.546,0,0,0,7.466-7.6l.039,0a4.6,4.6,0,0,0,2.727-8.258V40.629a1.94,1.94,0,0,0-1.938-1.938H50.4a10.755,10.755,0,0,0-7.272-8.3V28.531a2.079,2.079,0,0,0-2.077-2.077H35.981A2.079,2.079,0,0,0,33.9,28.531v1.86a10.722,10.722,0,0,0-7.273,8.3h-.617a1.94,1.94,0,0,0-1.938,1.938v3.505a4.6,4.6,0,0,0,2.7,8.277l.039,0a11.547,11.547,0,0,0,7.466,7.6v1.639A10.823,10.823,0,0,0,24.6,72.42v1.066H12.888a1.131,1.131,0,1,0,0,2.262H71.06a3.9,3.9,0,0,1,0,7.8H6.162a3.9,3.9,0,0,1,0-7.8h2.2a1.131,1.131,0,0,0,0-2.262h-2.2a6.161,6.161,0,0,0-.468,12.3v7.975A1.934,1.934,0,0,0,7.626,95.7H44.75a1.131,1.131,0,1,0,0-2.262H7.957V85.81H69.265v7.624H49.275a1.131,1.131,0,0,0,0,2.262H69.6a1.934,1.934,0,0,0,1.931-1.931V85.79A6.169,6.169,0,0,0,77.222,79.648ZM50.332,50.109c.031-.341.049-.686.049-1.035V45.646h.362l.043.02a2.34,2.34,0,0,1-.454,4.443ZM33.9,32.818v1.059a1.131,1.131,0,0,0,2.262,0v-5.16h4.7v5.209a1.131,1.131,0,1,0,2.262,0V32.818A8.322,8.322,0,0,1,48.1,38.691H28.937A8.441,8.441,0,0,1,33.9,32.818Zm-7.566,8.135h23.02l.04,0,.053,0h.938v2.43H26.339ZM24.5,47.822a2.32,2.32,0,0,1,1.273-2.089,1.145,1.145,0,0,0,.143-.087h.407v3.428c0,.349.018.694.049,1.035A2.316,2.316,0,0,1,24.5,47.822Zm4.086,1.252V45.646H48.118v3.428a9.246,9.246,0,0,1-9.235,9.235H37.82A9.246,9.246,0,0,1,28.584,49.074Zm9.235,11.5h1.063a11.583,11.583,0,0,0,1.274-.072v2.353a1.806,1.806,0,0,1-3.612,0V60.5a11.588,11.588,0,0,0,1.275.072ZM26.866,72.42a8.56,8.56,0,0,1,7.558-8.506,4.068,4.068,0,0,0,7.855,0,8.594,8.594,0,0,1,7.558,8.507v1.05H26.866Z" fill="#1a1311" stroke="#1a1311" stroke-width="0.5"/>
  </g>
</svg>
