<svg xmlns="http://www.w3.org/2000/svg" width="77.144" height="77.144" viewBox="0 0 77.144 77.144">
  <g id="_003-skateboard" data-name="003-skateboard" transform="translate(0)">
    <g id="Group_974" data-name="Group 974" transform="translate(0 0)">
      <path id="Path_244" data-name="Path 244" d="M248.906,2.23,248,1.324a4.52,4.52,0,0,0-6.392,0l-2.131,2.131a4.52,4.52,0,0,0,0,6.393l.4.4,3.208-3.208A39.349,39.349,0,0,1,248.906,2.23Z" transform="translate(-202.27 0)" fill="#1a1311"/>
      <path id="Path_245" data-name="Path 245" d="M452.033,202.467a39.382,39.382,0,0,1-4.8,5.828l-3.208,3.208.4.4a4.52,4.52,0,0,0,6.392,0l2.131-2.131a4.52,4.52,0,0,0,0-6.392Z" transform="translate(-377.121 -171.961)" fill="#1a1311"/>
      <path id="Path_246" data-name="Path 246" d="M10.732,268.645l-.884-.884a4.52,4.52,0,0,0-6.392,0l-2.131,2.131a4.52,4.52,0,0,0,0,6.393l1.461,1.461,2.3-2.3A47.9,47.9,0,0,0,10.732,268.645Z" transform="translate(0 -226.293)" fill="#1a1311"/>
      <path id="Path_247" data-name="Path 247" d="M170.511,448.722l1.461,1.461a4.52,4.52,0,0,0,6.392,0l2.131-2.131a4.52,4.52,0,0,0,0-6.392l-.884-.884a47.916,47.916,0,0,0-6.8,5.646Z" transform="translate(-144.82 -374.363)" fill="#1a1311"/>
    </g>
    <g id="Group_975" data-name="Group 975" transform="translate(0 0)">
      <path id="Path_248" data-name="Path 248" d="M76.613,2.364A2.267,2.267,0,0,0,74.78.531a34.962,34.962,0,0,0-30.773,9.7L26.861,27.378a54.677,54.677,0,0,0-9.486,12.749,52.41,52.41,0,0,1-9.092,12.22L1.324,59.306a4.52,4.52,0,0,0,0,6.393L11.445,75.82a4.52,4.52,0,0,0,6.392,0L24.8,68.862a52.419,52.419,0,0,1,12.223-9.094,54.68,54.68,0,0,0,12.75-9.486L66.912,33.138a34.963,34.963,0,0,0,9.7-30.774ZM22.1,61.437a2.26,2.26,0,0,1-3.2,0l-3.2-3.2a2.26,2.26,0,0,1,3.2-3.2l3.2,3.2A2.26,2.26,0,0,1,22.1,61.437Zm6.392-6.392a2.26,2.26,0,0,1-3.2,0l-3.2-3.2a2.26,2.26,0,1,1,3.2-3.2l3.2,3.2A2.26,2.26,0,0,1,28.492,55.044ZM60.98,25.753a2.26,2.26,0,0,1-3.2,0L51.391,19.36a2.26,2.26,0,1,1,3.2-3.2l6.393,6.393A2.26,2.26,0,0,1,60.98,25.753Zm6.392-6.392a2.26,2.26,0,0,1-3.2,0l-6.393-6.393a2.26,2.26,0,0,1,3.2-3.2l6.393,6.393A2.26,2.26,0,0,1,67.372,19.36Z" transform="translate(0 0)" fill="#1a1311"/>
    </g>
  </g>
</svg>
