<svg xmlns="http://www.w3.org/2000/svg" width="69.732" height="69.742" viewBox="0 0 69.732 69.742">
  <g id="_001-brush" data-name="001-brush" transform="translate(0.212 0.25)">
    <g id="Group_398" data-name="Group 398" transform="translate(0.038)">
      <g id="Group_397" data-name="Group 397" transform="translate(0)">
        <path id="Path_153" data-name="Path 153" d="M34.17,422.7a3.85,3.85,0,1,0,3.85-3.85A3.854,3.854,0,0,0,34.17,422.7Zm5.521,0a1.671,1.671,0,1,1-1.671-1.671A1.673,1.673,0,0,1,39.691,422.7Z" transform="translate(-29.554 -362.202)" fill="#1a1311" stroke="#1a1311" stroke-width="0.5"/>
        <path id="Path_154" data-name="Path 154" d="M68.191,24,63.87,19.678a1.09,1.09,0,1,0-1.541,1.541l.244.244L50.705,33.332a1.09,1.09,0,0,0,1.541,1.541L64.115,23,66.65,25.54a1.514,1.514,0,0,1,0,2.139L50.486,43.843,25.429,18.787,41.593,2.622a1.512,1.512,0,0,1,2.139,0L45.11,4,33.242,15.869a1.09,1.09,0,1,0,1.541,1.541L46.651,5.541,49.48,8.37,37.612,20.239a1.09,1.09,0,0,0,1.541,1.541L51.021,9.911,53.914,12.8,42.045,24.672a1.09,1.09,0,0,0,1.541,1.541L55.455,14.345,58.209,17.1,46.341,28.968a1.09,1.09,0,0,0,1.541,1.541L59.815,18.576a1.09,1.09,0,0,0,1.168-1.785L47.424,3.232h0L45.274,1.082a3.692,3.692,0,0,0-5.221,0L23.836,17.3a2.5,2.5,0,0,0-2.513-.215l-.022.012c-.052.028-.1.057-.152.089-.023.014-.044.031-.066.046s-.071.049-.1.076a2.041,2.041,0,0,0-.165.147l-2.382,2.382L16.5,21.767a2.367,2.367,0,0,0-.285,2.8l4.758,8.978a8.018,8.018,0,0,1-1.3,9.488,40.791,40.791,0,0,1-6.7,5.437A1.09,1.09,0,0,0,14.17,50.3a42.943,42.943,0,0,0,7.05-5.724,10.186,10.186,0,0,0,1.68-12.05l-4.758-8.978a.525.525,0,0,1-.074-.267L19.2,22.147,47.125,50.069l-1.142,1.142a.52.52,0,0,1-.26-.07L36.586,46.4a10.2,10.2,0,0,0-11.965,1.724L23.267,49.48c-3.666,3.666-6.218,7.758-8.536,13.682a6.08,6.08,0,0,1-1.372,2.1,6.178,6.178,0,0,1-4.5,1.8,6.694,6.694,0,0,1-4.8-2.137,6.5,6.5,0,0,1-.235-8.815,6.088,6.088,0,0,1,2.112-1.5c1.669-.712,3.172-1.425,4.6-2.179a1.09,1.09,0,1,0-1.019-1.926c-1.37.725-2.819,1.412-4.432,2.1a8.257,8.257,0,0,0-2.863,2.031,8.688,8.688,0,0,0,.257,11.783,8.856,8.856,0,0,0,6.353,2.82h.128A8.335,8.335,0,0,0,14.9,66.8a8.251,8.251,0,0,0,1.861-2.844,35.338,35.338,0,0,1,8.047-12.935l1.354-1.354a8.026,8.026,0,0,1,9.42-1.331l9.137,4.739a2.336,2.336,0,0,0,2.779-.3l4.321-4.321a2.192,2.192,0,0,0,.591-1.865,2.858,2.858,0,0,0-.435-1.156L68.191,29.22A3.7,3.7,0,0,0,68.191,24ZM48.666,48.528,20.744,20.606,22.33,19.02h.018l.032,0,.022,0,.017,0,.043.011.006,0,.056.02.007,0c.018.008.038.017.057.027l.014.007c.017.009.035.02.054.032l.021.013c.017.012.035.025.053.039l.022.017c.025.02.049.042.074.067l.292.292,26.6,26.6h0l.292.292a.728.728,0,0,1,.245.495Z" transform="translate(-0.038 0)" fill="#1a1311" stroke="#1a1311" stroke-width="0.5"/>
      </g>
    </g>
  </g>
</svg>
