<svg xmlns="http://www.w3.org/2000/svg" width="46.543" height="30.515" viewBox="0 0 46.543 30.515">
  <g id="Group_438" data-name="Group 438" transform="translate(-143.775 -230.531)">
    <path id="Path_10" data-name="Path 10" d="M150.693,259.727a3.459,3.459,0,0,1-6.918,0V237.076a3.459,3.459,0,0,1,6.918,0Z" transform="translate(0 -2.194)" fill="#ffec00"/>
    <path id="Path_11" data-name="Path 11" d="M205.334,249.839l-2.059-4.092s-5.167-9.869-6.343-11.864-2.351-2.461-3.854-2.461-2.541.874-3.717,2.787c-1.217,1.978-1.208,1.972-2.381,4.074-.873,1.859-5.192,11.755-5.192,11.755s-.159.574-.448.6c-.06-.014-.118-.034-.178-.045a.416.416,0,0,1-.14-.3V237.517h4.784c.354-3.826,3.962-6.014,3.962-6.014H166.346a6.455,6.455,0,0,1,2.4,5.8h5.742v18.049a4.966,4.966,0,0,0,0,1.461v.09h.011a5.6,5.6,0,0,0,5.537,4.781,5.874,5.874,0,0,0,5.37-4.018h.015s6.751-14.923,7.326-15.8,1.583-.438,2.077.246c.444.617,1.75,3.446,2,4a7.8,7.8,0,1,0,8.5,3.731Zm-7.1,5.312a1.663,1.663,0,1,1,1.664-1.662A1.663,1.663,0,0,1,198.23,255.151Z" transform="translate(-16.046 -0.633)" fill="#00802f"/>
    <path id="Path_12" data-name="Path 12" d="M284.827,230.994a2.891,2.891,0,1,1-2.048.847A2.807,2.807,0,0,1,284.827,230.994Zm3.361,2.884a3.358,3.358,0,0,0-6.716,0,3.264,3.264,0,0,0,.973,2.383,3.364,3.364,0,0,0,5.743-2.383Zm-2.48-.725a.556.556,0,0,1-.39.565,1.837,1.837,0,0,1-.629.081h-.6v-1.312h.567a1.766,1.766,0,0,1,.8.136A.548.548,0,0,1,285.708,233.153Zm-2.249-1.127v3.683h.63v-1.45h.524a1.659,1.659,0,0,1,.739.117.892.892,0,0,1,.357.845v.291l.014.117a3.993,3.993,0,0,0,.018.079h.6l-.021-.047a.567.567,0,0,1-.031-.192c-.006-.1-.009-.19-.009-.273v-.271a1.017,1.017,0,0,0-.2-.571.906.906,0,0,0-.633-.361,1.387,1.387,0,0,0,.535-.178.8.8,0,0,0,.358-.725.909.909,0,0,0-.573-.931,2.8,2.8,0,0,0-1.012-.133Z" transform="translate(-97.892)" fill="#00802f"/>
  </g>
</svg>
