<?xml version="1.0" encoding="utf-8"?>
<!-- Generator: Adobe Illustrator 16.0.0, SVG Export Plug-In . SVG Version: 6.00 Build 0)  -->
<!DOCTYPE svg PUBLIC "-//W3C//DTD SVG 1.1//EN" "http://www.w3.org/Graphics/SVG/1.1/DTD/svg11.dtd">
<svg version="1.1" id="圖層_1" xmlns="http://www.w3.org/2000/svg" xmlns:xlink="http://www.w3.org/1999/xlink" x="0px" y="0px"
	 width="34.875px" height="34.875px" viewBox="0 0 34.875 34.875" enable-background="new 0 0 34.875 34.875" xml:space="preserve">
<path id="Icon_awesome-globe-asia" fill="#FFEC00" d="M17.438,0C7.807,0,0,7.806-0.001,17.437c0,9.631,7.806,17.438,17.437,17.439
	c9.63,0.001,17.439-7.806,17.439-17.437c0,0,0-0.001,0-0.002C34.875,7.807,27.068,0,17.438,0z M16.638,16.891
	c-0.204,0.339-0.57,0.546-0.965,0.546h-0.022c-0.3-0.001-0.588,0.118-0.8,0.33l-0.4,0.4c-0.221,0.219-0.223,0.575-0.004,0.796
	c0.001,0.002,0.002,0.003,0.004,0.004l0.4,0.4c0.212,0.212,0.331,0.5,0.33,0.8v0.659c-0.008,0.613-0.505,1.107-1.118,1.111h-0.43
	c-0.426,0-0.815-0.241-1.006-0.623l-1.59-3.18c-0.14-0.277-0.479-0.389-0.756-0.25c-0.053,0.027-0.102,0.062-0.144,0.104
	l-1.37,1.368c-0.212,0.212-0.5,0.33-0.8,0.33h-4.4C2.31,12.038,7.492,4.818,15.141,3.561c2.217-0.364,4.49-0.191,6.626,0.505
	l-3.523,2.708c-0.259,0.173-0.328,0.522-0.155,0.781c0.054,0.081,0.128,0.146,0.216,0.19l0.76,0.38
	c0.382,0.19,0.623,0.58,0.623,1.006v5.493c0,0.311-0.251,0.563-0.562,0.563c-0.001,0-0.001,0-0.001,0H18.91
	c-0.213-0.001-0.406-0.121-0.5-0.311c-0.078-0.154-0.266-0.216-0.419-0.139c-0.053,0.026-0.097,0.067-0.127,0.118l-1.224,2.036
	H16.638z M28.688,24.637c0.002,0.301-0.117,0.588-0.33,0.801l-0.672,0.672c-0.213,0.213-0.5,0.332-0.801,0.33h-1.061
	c-0.301,0.002-0.588-0.117-0.801-0.33l-0.914-0.914c-0.467-0.47-1.145-0.659-1.787-0.5l-1.5,0.373
	c-0.09,0.023-0.182,0.035-0.273,0.035h-0.727c-0.301,0-0.588-0.118-0.801-0.33L18.2,23.938c-0.106-0.106-0.165-0.25-0.165-0.4V22.82
	c0-0.23,0.141-0.438,0.354-0.522l2.766-1.106c0.14-0.056,0.271-0.128,0.394-0.215l1.667-1.188c0.096-0.066,0.21-0.102,0.326-0.1
	h0.85c0.229-0.001,0.434,0.137,0.521,0.347l0.376,0.899c0.043,0.105,0.146,0.174,0.259,0.174h0.267c0.125,0,0.234-0.081,0.271-0.2
	l0.3-1.017c0.036-0.119,0.146-0.201,0.27-0.201h0.427c0.155,0,0.28,0.127,0.28,0.281l0,0v0.909c0,0.15,0.06,0.294,0.166,0.4
	l0.836,0.837c0.213,0.212,0.332,0.5,0.33,0.8v1.718H28.688z"/>
</svg>
