<svg xmlns="http://www.w3.org/2000/svg" width="34.875" height="34.875" viewBox="0 0 34.875 34.875">
  <path id="Icon_awesome-globe-asia" data-name="Icon awesome-globe-asia" d="M17.438.563A17.438,17.438,0,1,0,34.875,18,17.437,17.437,0,0,0,17.438.563Zm-.8,16.891a1.125,1.125,0,0,1-.965.546h-.022a1.125,1.125,0,0,0-.8.33l-.4.4a.563.563,0,0,0,0,.8l.4.4a1.125,1.125,0,0,1,.33.8v.659A1.125,1.125,0,0,1,14.063,22.5h-.43a1.124,1.124,0,0,1-1.006-.622l-1.59-3.18a.563.563,0,0,0-.9-.146L8.767,19.92a1.125,1.125,0,0,1-.8.33h-4.4a14.036,14.036,0,0,1,18.2-15.621L18.244,7.337a.563.563,0,0,0,.06.971l.761.38a1.125,1.125,0,0,1,.622,1.006v5.493a.562.562,0,0,1-.562.563H18.91a.561.561,0,0,1-.5-.311.312.312,0,0,0-.546-.021L16.64,17.454ZM28.688,25.2a1.125,1.125,0,0,1-.33.8l-.673.673a1.125,1.125,0,0,1-.8.33H25.824a1.125,1.125,0,0,1-.8-.33l-.915-.915a1.882,1.882,0,0,0-1.787-.5l-1.5.374a1.115,1.115,0,0,1-.273.034h-.727a1.125,1.125,0,0,1-.8-.33L18.2,24.5a.563.563,0,0,1-.165-.4v-.717a.563.563,0,0,1,.354-.522l2.766-1.107a1.885,1.885,0,0,0,.393-.214l1.667-1.188a.561.561,0,0,1,.326-.1h.85a.562.562,0,0,1,.52.347l.376.9a.281.281,0,0,0,.259.173h.267a.281.281,0,0,0,.27-.2l.3-1.017a.281.281,0,0,1,.27-.2h.426a.281.281,0,0,1,.281.281v.909a.563.563,0,0,0,.165.4l.837.837a1.125,1.125,0,0,1,.33.8V25.2Z" transform="translate(0 -0.563)" fill="#fff"/>
</svg>
