<svg xmlns="http://www.w3.org/2000/svg" width="90.099" height="59.072" viewBox="0 0 90.099 59.072">
  <g id="Group_7" data-name="Group 7" transform="translate(-143.775 -230.531)">
    <path id="Path_10" data-name="Path 10" d="M157.166,284.162a6.7,6.7,0,1,1-13.391,0V240.313a6.7,6.7,0,1,1,13.391,0Z" transform="translate(0 -1.359)" fill="#ffec00"/>
    <path id="Path_11" data-name="Path 11" d="M241.819,267.074l-3.985-7.922s-10-19.105-12.279-22.966-4.551-4.765-7.461-4.765-4.918,1.692-7.2,5.394c-2.356,3.83-2.339,3.817-4.608,7.887-1.689,3.6-10.05,22.755-10.05,22.755s-.308,1.111-.868,1.154c-.116-.026-.228-.065-.344-.087a.806.806,0,0,1-.271-.59V243.222h9.262c.684-7.406,7.67-11.642,7.67-11.642H166.346C172.007,235.658,171,242.8,171,242.8h11.115v34.939a9.612,9.612,0,0,0,0,2.829v.175h.022A10.842,10.842,0,0,0,192.854,290c4.923,0,8.671-3.393,10.4-7.778h.029s13.069-28.889,14.182-30.581,3.065-.848,4.02.476c.859,1.194,3.388,6.671,3.88,7.739a15.1,15.1,0,1,0,16.458,7.222Zm-13.751,10.283a3.22,3.22,0,1,1,3.222-3.218A3.219,3.219,0,0,1,228.067,277.357Z" transform="translate(-9.94 -0.392)" fill="#fff"/>
    <path id="Path_12" data-name="Path 12" d="M287.967,231.427A5.6,5.6,0,1,1,284,233.066,5.433,5.433,0,0,1,287.967,231.427Zm6.505,5.582a6.5,6.5,0,0,0-13,0,6.32,6.32,0,0,0,1.884,4.613,6.512,6.512,0,0,0,11.117-4.613Zm-4.8-1.4a1.076,1.076,0,0,1-.754,1.093,3.557,3.557,0,0,1-1.218.157h-1.163v-2.54h1.1a3.418,3.418,0,0,1,1.552.262A1.061,1.061,0,0,1,289.672,235.607Zm-4.354-2.182v7.13h1.219v-2.806h1.015a3.21,3.21,0,0,1,1.43.227,1.726,1.726,0,0,1,.691,1.635v.564l.026.227a.519.519,0,0,0,.017.078.513.513,0,0,0,.017.074h1.159l-.04-.092a1.1,1.1,0,0,1-.061-.372c-.011-.188-.017-.367-.017-.529v-.525a1.969,1.969,0,0,0-.385-1.106,1.753,1.753,0,0,0-1.226-.7,2.685,2.685,0,0,0,1.036-.345,1.546,1.546,0,0,0,.693-1.4,1.76,1.76,0,0,0-1.109-1.8,5.429,5.429,0,0,0-1.959-.258Z" transform="translate(-60.642)" fill="#fff"/>
  </g>
</svg>
