<?xml version="1.0" encoding="utf-8"?>
<!-- Generator: Adobe Illustrator 16.0.0, SVG Export Plug-In . SVG Version: 6.00 Build 0)  -->
<!DOCTYPE svg PUBLIC "-//W3C//DTD SVG 1.1//EN" "http://www.w3.org/Graphics/SVG/1.1/DTD/svg11.dtd">
<svg version="1.1" id="圖層_1" xmlns="http://www.w3.org/2000/svg" xmlns:xlink="http://www.w3.org/1999/xlink" x="0px" y="0px"
	 width="33.309px" height="33.309px" viewBox="0 0 33.309 33.309" enable-background="new 0 0 33.309 33.309" xml:space="preserve">
<path id="Exclusion_1" fill="#FFEC00" d="M16.654,33.309L16.654,33.309L0,16.654L16.654,0l16.655,16.653L16.654,33.309z
	 M15.869,11.4c-0.193,0-0.379,0.075-0.516,0.211c-0.137,0.135-0.214,0.318-0.214,0.511c-0.001,0.193,0.076,0.38,0.214,0.517
	l3.852,3.848l-3.849,3.852c-0.137,0.135-0.214,0.318-0.214,0.511c0,0.402,0.325,0.729,0.729,0.73c0.193,0,0.379-0.077,0.516-0.213
	l4.381-4.392c0.262-0.285,0.252-0.726-0.021-1l-4.363-4.359C16.247,11.477,16.063,11.401,15.869,11.4z"/>
</svg>
