<svg id="_x3C_Group_x3E__18_" xmlns="http://www.w3.org/2000/svg" width="67.803" height="77.144" viewBox="0 0 67.803 77.144">
  <g id="Group_33" data-name="Group 33" transform="translate(0)">
    <path id="Path_26" data-name="Path 26" d="M60.378,45.352h2.26v-4.52H53.6v-6.78a2.26,2.26,0,0,0-4.52,0v6.78H32.826a13.5,13.5,0,0,0,7.565,19.632A13.559,13.559,0,0,0,62.638,73.68V58.913h-2.26a6.78,6.78,0,1,1,0-13.56Zm36.592-4.52H85.239v2.26a6.78,6.78,0,1,1-13.56,0v-2.26h-4.52v9.04h-6.78a2.26,2.26,0,1,0,0,4.52h6.78V73.68A13.559,13.559,0,0,0,89.405,60.464,13.5,13.5,0,0,0,96.97,40.832ZM89.405,16.679A13.559,13.559,0,0,0,67.158,3.464V18.231h2.26a6.78,6.78,0,1,1,0,13.56h-2.26v4.52H76.2v6.78a2.26,2.26,0,0,0,4.52,0v-6.78H96.97A13.5,13.5,0,0,0,89.405,16.679ZM69.419,22.751h-6.78V3.464A13.559,13.559,0,0,0,40.392,16.679a13.5,13.5,0,0,0-7.565,19.632H44.558v-2.26a6.78,6.78,0,0,1,13.56,0v2.26h4.52v-9.04h6.78a2.26,2.26,0,1,0,0-4.52Z" transform="translate(-30.997)" fill="#1a1311"/>
  </g>
</svg>
