<svg id="_006-service" data-name="006-service" xmlns="http://www.w3.org/2000/svg" width="77.144" height="77.144" viewBox="0 0 77.144 77.144">
  <g id="Group_35" data-name="Group 35" transform="translate(52.261 0)">
    <g id="Group_34" data-name="Group 34">
      <path id="Path_32" data-name="Path 32" d="M371.073,3.858l-3.2-3.2A2.261,2.261,0,0,0,365.344.2L348.177,7.78a2.261,2.261,0,0,0-.663,3.657L360.3,24.221a2.261,2.261,0,0,0,3.657-.663l7.578-17.167A2.261,2.261,0,0,0,371.073,3.858Z" transform="translate(-346.852 0)" fill="#1a1311"/>
    </g>
  </g>
  <g id="Group_37" data-name="Group 37" transform="translate(0 49.759)">
    <g id="Group_36" data-name="Group 36">
      <path id="Path_33" data-name="Path 33" d="M14.6,330.25,1.983,342.867a6.787,6.787,0,0,0,0,9.588l3.2,3.2a6.787,6.787,0,0,0,9.588,0l12.617-12.617Zm-1.409,17.421a2.26,2.26,0,0,1-3.2-3.2l6.225-6.225a2.26,2.26,0,0,1,3.2,3.2Z" transform="translate(0 -330.25)" fill="#1a1311"/>
    </g>
  </g>
  <g id="Group_39" data-name="Group 39" transform="translate(16.475 38.849)">
    <g id="Group_38" data-name="Group 38">
      <path id="Path_34" data-name="Path 34" d="M129.84,271.946l-12.785-12.785a4.52,4.52,0,0,0-6.392,6.392l12.785,12.785a4.52,4.52,0,0,0,6.392-6.392Z" transform="translate(-109.342 -257.84)" fill="#1a1311"/>
    </g>
  </g>
  <g id="Group_41" data-name="Group 41" transform="translate(27.385 17.829)">
    <g id="Group_40" data-name="Group 40">
      <path id="Path_35" data-name="Path 35" d="M213.68,124.722l-6.392-6.392L189.74,135.877a4.52,4.52,0,0,0-6.392,0l-1.6,1.6,12.785,12.785,1.6-1.6a4.52,4.52,0,0,0,0-6.392Z" transform="translate(-181.75 -118.33)" fill="#1a1311"/>
    </g>
  </g>
  <g id="Group_43" data-name="Group 43" transform="translate(43.367 40.167)">
    <g id="Group_42" data-name="Group 42">
      <path id="Path_36" data-name="Path 36" d="M317.637,280.415c-3.669-3.669-8.081-4.458-13.143-3.553l-10.275-10.274-2.454,2.454a9.024,9.024,0,0,1-2.344,8.736l-1.595,1.595,7.071,7.071c-.713,3.99-.646,7.374,1.832,11.044a13.568,13.568,0,0,0,13.107,5.924,2.305,2.305,0,0,0,1.315-3.913l-3.108-3.1V290h6.4l3.091,3.091a2.306,2.306,0,0,0,3.914-1.325A13.512,13.512,0,0,0,317.637,280.415Z" transform="translate(-287.827 -266.588)" fill="#1a1311"/>
    </g>
  </g>
  <g id="Group_45" data-name="Group 45" transform="translate(0.002 0)">
    <g id="Group_44" data-name="Group 44" transform="translate(0 0)">
      <path id="Path_37" data-name="Path 37" d="M26.684,17.072c.9-5.009.171-9.416-3.553-13.143A13.4,13.4,0,0,0,13.585,0a13.775,13.775,0,0,0-1.809.119,2.306,2.306,0,0,0-1.325,3.916l3.121,3.09V13.56H7.15l-3.1-3.141A2.305,2.305,0,0,0,.138,11.736a13.553,13.553,0,0,0,5.917,13.1c3.684,2.482,7.088,2.544,11.048,1.83l7.1,7.111,1.6-1.6a9.024,9.024,0,0,1,8.735-2.344l2.453-2.453Z" transform="translate(-0.013 0)" fill="#1a1311"/>
    </g>
  </g>
</svg>
