<svg id="_005-sale" data-name="005-sale" xmlns="http://www.w3.org/2000/svg" width="77.254" height="77.144" viewBox="0 0 77.254 77.144">
  <path id="Path_29" data-name="Path 29" d="M178.189,304.909l-.046-.079A12.876,12.876,0,0,0,160.915,300l-9.6,4.982c.04.415.078.87.078,1.085a10.155,10.155,0,0,1-5,8.655,8.72,8.72,0,0,1-4.387,1.187,9.73,9.73,0,0,1-4.871-1.364l-.082-.05-8.241-5.236a2.26,2.26,0,1,1,2.424-3.816l8.2,5.208a4.489,4.489,0,0,0,4.7.155,5.652,5.652,0,0,0,2.562-3.427l0,0a5.137,5.137,0,0,0-2.692-5.565l-9.327-5.385a5.463,5.463,0,0,0-3.222-1.05H119.023v21.357h1.443l17.9,10.357a6.814,6.814,0,0,0,3.406.974,5.559,5.559,0,0,0,2.986-.861l33.053-20.774A1.13,1.13,0,0,0,178.189,304.909Z" transform="translate(-101.087 -250.923)" fill="#1a1311"/>
  <path id="Path_30" data-name="Path 30" d="M11.154,249.207H2.26A2.26,2.26,0,0,0,0,251.467v31.476a2.26,2.26,0,0,0,2.26,2.26h8.894a2.26,2.26,0,0,0,2.26-2.26V251.467a2.26,2.26,0,0,0-2.26-2.26Z" transform="translate(0 -211.708)" fill="#1a1311"/>
  <path id="Path_31" data-name="Path 31" d="M216.361,25.551a5.324,5.324,0,0,1,.719.762,5.091,5.091,0,0,1-.188,1.54,6.4,6.4,0,0,0,.269,4.556,5.116,5.116,0,0,0,3.688,2.315,5.344,5.344,0,0,1,1,.3,5.084,5.084,0,0,1,.606,1.428,6.4,6.4,0,0,0,2.511,3.811,5.117,5.117,0,0,0,4.351.16,5.4,5.4,0,0,1,1.02-.242,5.094,5.094,0,0,1,1.239.933,6.4,6.4,0,0,0,4.08,2.045l.109,0a5.18,5.18,0,0,0,3.74-2.038,5.335,5.335,0,0,1,.762-.719,5.094,5.094,0,0,1,1.54.189,6.4,6.4,0,0,0,4.556-.269,5.116,5.116,0,0,0,2.315-3.688,5.343,5.343,0,0,1,.3-1,5.09,5.09,0,0,1,1.428-.607,6.4,6.4,0,0,0,3.811-2.511,5.116,5.116,0,0,0,.16-4.351,5.342,5.342,0,0,1-.242-1.02,5.1,5.1,0,0,1,.933-1.239,6.4,6.4,0,0,0,2.045-4.08,5.117,5.117,0,0,0-2.037-3.849,5.331,5.331,0,0,1-.719-.763,5.088,5.088,0,0,1,.188-1.54,6.4,6.4,0,0,0-.269-4.556A5.117,5.117,0,0,0,250.6,8.8a5.331,5.331,0,0,1-1-.3,5.083,5.083,0,0,1-.607-1.428,6.4,6.4,0,0,0-2.511-3.811,5.116,5.116,0,0,0-4.351-.16,5.083,5.083,0,0,1-1.02.242,5.1,5.1,0,0,1-1.239-.933,6.4,6.4,0,0,0-4.08-2.045h0A5.118,5.118,0,0,0,231.934,2.4a5.325,5.325,0,0,1-.763.719,5.1,5.1,0,0,1-1.54-.189,6.4,6.4,0,0,0-4.556.269,5.116,5.116,0,0,0-2.315,3.688,5.343,5.343,0,0,1-.3,1,5.087,5.087,0,0,1-1.428.607,6.4,6.4,0,0,0-3.811,2.511,5.116,5.116,0,0,0-.16,4.351,5.364,5.364,0,0,1,.242,1.02,5.1,5.1,0,0,1-.933,1.239,6.4,6.4,0,0,0-2.045,4.08,5.116,5.116,0,0,0,2.037,3.848Zm26.388-.923a2.26,2.26,0,1,1-3.088.827A2.26,2.26,0,0,1,242.749,24.628Zm-5.519-10a2.26,2.26,0,1,1,3.915,2.26L234.214,28.9a2.26,2.26,0,0,1-3.915-2.26Zm-8.911.352a2.26,2.26,0,1,1,.827,3.088A2.26,2.26,0,0,1,228.32,14.982Z" transform="translate(-182.026 -0.365)" fill="#1a1311"/>
</svg>
