<svg id="_001-premium-badge" data-name="001-premium-badge" xmlns="http://www.w3.org/2000/svg" width="65.916" height="77.144" viewBox="0 0 65.916 77.144">
  <g id="Layer_5_21_" transform="translate(0)">
    <g id="Group_32" data-name="Group 32">
      <path id="Path_22" data-name="Path 22" d="M92.544,65.547l-10.1-17.355c1.747-.533,3.609-1,4.382-2.339,1.289-2.225-1.005-5.876-.4-8.261.621-2.455,4.284-4.579,4.284-7.074,0-2.431-3.788-5.271-4.409-7.711-.607-2.385,1.681-6.039.388-8.262s-5.6-2.04-7.374-3.746C77.491,9.042,77.5,4.747,75.3,3.57s-5.8,1.206-8.253.64C64.618,3.651,62.451,0,59.918,0c-2.571,0-6.66,4.142-7.3,4.291-2.452.57-6.047-1.811-8.254-.625S42.178,9.143,40.357,10.9c-1.77,1.709-6.078,1.535-7.367,3.76s1.005,5.874.4,8.261S29,27.739,29,30.506c0,2.5,3.673,4.613,4.3,7.066.607,2.385-1.681,6.039-.388,8.262.7,1.21,2.3,1.707,3.9,2.185.186.056.538.264.3.611L27.229,65.674a1.407,1.407,0,0,0,1.261,2.3l6.814.284A5.424,5.424,0,0,1,39.184,70.5l3.636,5.769a1.407,1.407,0,0,0,2.621-.049S55.613,58.662,55.618,58.657c.2-.238.409-.19.507-.106a7.042,7.042,0,0,0,3.96,1.893c1.27,0,2.446-.89,3.609-1.883.095-.081.325-.246.493.1L74.352,76.131a1.407,1.407,0,0,0,2.62.045L80.6,70.4a5.424,5.424,0,0,1,3.877-2.255l6.813-.3A1.408,1.408,0,0,0,92.544,65.547Zm-21.366-15.8a22.581,22.581,0,1,1-.452-39.369l.168.094.238.134a22.622,22.622,0,0,1,.046,39.142Z" transform="translate(-26.93)" fill="#1a1311"/>
      <path id="Path_23" data-name="Path 23" d="M121.971,56.12l-.094-.053a19.037,19.037,0,0,0-19.655,32.6c.217.137.436.272.66.4a19.041,19.041,0,0,0,19.09-32.951Zm2.273,14.852-3.181,3.1a5.344,5.344,0,0,0-1.368,4.212l.751,4.378c.233,1.356-.573,1.942-1.791,1.3L114.722,81.9a5.346,5.346,0,0,0-4.429,0l-3.932,2.067c-1.218.64-2.024.055-1.791-1.3l.751-4.378a5.345,5.345,0,0,0-1.368-4.212l-3.181-3.1c-.985-.96-.677-1.908.684-2.106l4.4-.639a5.346,5.346,0,0,0,3.583-2.6l1.966-3.983c.609-1.234,1.605-1.234,2.214,0l1.966,3.983a5.345,5.345,0,0,0,3.583,2.6l4.4.639C124.921,69.064,125.229,70.011,124.243,70.972Z" transform="translate(-79.445 -42.339)" fill="#1a1311"/>
    </g>
  </g>
</svg>
